<svg version="1.1" id="Layer_1" xmlns="http://www.w3.org/2000/svg" xmlns:xlink="http://www.w3.org/1999/xlink" x="0px" y="0px"
	 width="100%" viewBox="0 0 138 92" enable-background="new 0 0 138 92" xml:space="preserve">
<path fill="#BB4511" opacity="1.000000" stroke="none" 
	d="
M68.000000,93.000000 
	C45.709972,93.000000 23.419945,93.000000 1.064958,93.000000 
	C1.064958,62.436218 1.064958,31.872265 1.064958,1.000000 
	C23.019936,1.000000 45.041309,1.000000 67.531845,1.461108 
	C67.967407,5.028062 67.933800,8.133907 67.501396,11.109729 
	C65.737617,12.106209 63.147041,13.326234 63.224598,14.342662 
	C63.524303,18.270302 60.772434,23.089447 66.185242,26.087620 
	C67.014809,28.395199 67.504250,30.552685 67.603409,32.832993 
	C62.869152,34.003693 58.239456,34.438232 54.268917,36.287800 
	C50.915165,37.850056 46.874432,40.510292 45.702785,43.643692 
	C43.330971,49.986763 44.445221,56.604271 48.518803,62.531616 
	C53.084965,69.175713 60.023212,69.654144 67.084030,70.653847 
	C68.062004,73.341675 68.950172,75.673058 69.898468,78.446007 
	C70.073517,81.530891 70.188438,84.174225 69.950027,86.978065 
	C69.064461,89.092384 68.532234,91.046196 68.000000,93.000000 
M21.622206,34.756733 
	C26.622234,39.043457 32.171974,41.559525 39.230919,40.720398 
	C36.347427,34.810631 27.000353,31.559448 21.622206,34.756733 
M37.925941,74.509529 
	C40.168198,72.455399 42.410458,70.401260 44.652714,68.347122 
	C38.394756,67.496132 34.558739,69.857315 31.798630,75.510117 
	C34.123760,75.221405 35.699951,75.025696 37.925941,74.509529 
M44.203060,18.993824 
	C46.228352,23.688635 50.065712,25.489052 55.099342,25.571692 
	C52.741722,22.357853 49.904610,19.757095 46.867237,17.416174 
	C46.412476,17.065685 45.018951,17.933252 44.203060,18.993824 
M39.115047,30.385866 
	C41.662067,31.146807 44.209084,31.907749 46.756104,32.668690 
	C44.916920,27.239004 41.774750,25.098055 36.401989,26.126497 
	C37.340218,27.647047 38.004333,28.723352 39.115047,30.385866 
M24.376442,48.428150 
	C24.784580,49.657043 25.248301,51.964958 25.592222,51.947239 
	C28.883688,51.777687 32.154907,51.215046 35.431934,50.765156 
	C35.370571,50.092808 35.309212,49.420460 35.247852,48.748116 
	C31.874697,48.524307 28.501543,48.300503 24.376442,48.428150 
M25.653927,62.820423 
	C24.872578,63.477146 24.091230,64.133873 23.309881,64.790596 
	C23.507252,65.199745 23.704624,65.608894 23.901995,66.018044 
	C28.548271,64.492859 33.194546,62.967678 37.840824,61.442497 
	C37.658058,60.808353 37.475288,60.174206 37.292522,59.540058 
	C33.625919,60.521431 29.959318,61.502800 25.653927,62.820423 
M50.460411,79.152580 
	C50.219067,80.016113 49.977718,80.879639 49.736374,81.743172 
	C50.236534,81.986214 50.736698,82.229256 51.236862,82.472298 
	C52.961079,79.499802 54.685295,76.527298 56.409508,73.554802 
	C55.762489,73.169823 55.115467,72.784843 54.468449,72.399857 
	C53.247528,74.418625 52.026604,76.437393 50.460411,79.152580 
z"/>
<path fill="#BD4B0E" opacity="1.000000" stroke="none" 
	d="
M99.000000,1.000000 
	C112.299332,1.000000 125.598663,1.000000 138.949005,1.000000 
	C138.949005,31.554398 138.949005,62.108902 138.949005,93.000000 
	C125.981041,93.000000 112.959175,93.000000 99.468330,92.545296 
	C99.327423,88.081177 99.655510,84.071762 100.348221,80.092873 
	C102.083099,75.979301 99.823105,73.146538 97.504990,70.202606 
	C98.876945,68.643105 99.958748,67.320580 101.344528,66.169220 
	C104.280495,69.571297 107.385101,71.831017 112.478477,71.873497 
	C109.421288,66.718605 105.557106,64.443710 100.151726,63.859093 
	C99.580513,55.711979 99.290596,47.896385 99.399063,40.001503 
	C103.503090,39.240368 107.639305,39.488255 110.638954,34.393906 
	C106.823845,35.094707 104.042847,35.605556 100.942787,35.892807 
	C100.083084,33.126408 99.542442,30.583609 99.237503,27.784233 
	C100.629440,25.949379 101.785675,24.371101 102.941910,22.792824 
	C101.961510,22.478725 100.981117,22.164625 99.907974,21.452515 
	C99.543488,14.369670 99.271744,7.684835 99.000000,1.000000 
M110.337601,57.233246 
	C108.663246,57.159203 106.988899,57.085155 104.714546,56.984577 
	C110.371696,62.118305 116.496674,63.322575 122.231369,59.789894 
	C117.837532,58.837654 114.503799,58.115162 110.337601,57.233246 
z"/>
<path fill="#BD4B12" opacity="1.000000" stroke="none" 
	d="
M101.040558,65.998055 
	C99.958748,67.320580 98.876945,68.643105 97.157913,70.059441 
	C94.112251,69.199402 93.271820,70.335762 94.397263,72.298019 
	C95.975166,75.049133 98.095360,77.489220 99.983589,80.062347 
	C99.655510,84.071762 99.327423,88.081177 98.999672,92.545296 
	C88.979103,93.000000 78.958214,93.000000 68.468658,93.000000 
	C68.532234,91.046196 69.064461,89.092384 70.179451,86.719681 
	C72.066132,82.327194 74.631424,78.349251 70.558929,73.474304 
	C70.226738,75.562706 70.032539,76.783577 69.838348,78.004448 
	C68.950172,75.673058 68.062004,73.341675 67.495392,70.543190 
	C71.531738,69.247620 75.358940,68.747192 78.937500,67.521095 
	C85.975830,65.109581 88.117256,61.222073 86.585106,54.688747 
	C85.091820,48.321114 77.421379,41.331192 72.300201,42.148838 
	C68.225258,42.799446 64.210632,44.001396 60.269566,45.270229 
	C55.946007,46.662197 54.564743,49.952480 56.583687,53.859833 
	C57.886868,56.381931 59.923485,59.272793 62.343052,60.267662 
	C64.952477,61.340599 68.485329,60.795876 71.417313,60.110142 
	C72.422295,59.875095 72.829269,57.083179 73.876907,54.582207 
	C71.935532,55.089279 71.329056,55.358265 70.711357,55.387161 
	C69.190285,55.458328 67.602646,55.652283 66.178673,55.277180 
	C65.770683,55.169701 65.318970,52.774521 65.775337,52.320061 
	C66.936417,51.163822 68.989998,49.481392 69.985336,49.858727 
	C72.552483,50.831940 75.573975,52.310211 76.874702,54.500736 
	C78.603844,57.412743 76.552643,60.081295 73.748062,61.939606 
	C65.588921,67.345810 54.713661,62.026604 51.983074,51.375690 
	C51.075253,47.834618 52.031216,45.280132 54.790234,43.062588 
	C60.954834,38.107822 75.283493,37.528370 81.735214,42.166183 
	C88.630463,47.122822 92.230186,53.739201 90.988152,62.843979 
	C95.626076,58.931915 97.282486,53.897129 95.670013,49.748043 
	C91.484596,38.978485 79.537743,31.623861 67.993683,32.710171 
	C67.504250,30.552685 67.014809,28.395199 66.250793,25.677814 
	C66.617538,20.491863 67.258865,15.865808 67.900185,11.239753 
	C67.933800,8.133907 67.967407,5.028062 68.000504,1.461108 
	C78.020897,1.000000 88.041786,1.000000 98.531342,1.000000 
	C99.271744,7.684835 99.543488,14.369670 99.589279,21.598694 
	C95.585922,24.922752 90.354027,26.039780 88.011185,31.877703 
	C90.526955,30.962631 92.172623,30.343147 93.832977,29.765905 
	C95.548485,29.169493 97.278267,28.614128 99.001801,28.040810 
	C99.542442,30.583609 100.083084,33.126408 100.746597,36.160831 
	C100.246544,37.795231 99.623619,38.938007 99.000687,40.080788 
	C99.290596,47.896385 99.580513,55.711979 100.250542,64.078110 
	C100.767288,65.085121 100.903923,65.541588 101.040558,65.998055 
M86.627640,17.922543 
	C87.165215,15.668034 87.702789,13.413525 88.304474,10.890133 
	C82.399727,11.380463 76.236191,22.152534 78.664413,27.895214 
	C81.408447,24.524715 83.828461,21.552225 86.627640,17.922543 
z"/>
<path fill="#FDF9F7" opacity="1.000000" stroke="none" 
	d="
M67.603416,32.832993 
	C79.537743,31.623861 91.484596,38.978485 95.670013,49.748043 
	C97.282486,53.897129 95.626076,58.931915 90.988152,62.843979 
	C92.230186,53.739201 88.630463,47.122822 81.735214,42.166183 
	C75.283493,37.528370 60.954834,38.107822 54.790234,43.062588 
	C52.031216,45.280132 51.075253,47.834618 51.983074,51.375690 
	C54.713661,62.026604 65.588921,67.345810 73.748062,61.939606 
	C76.552643,60.081295 78.603844,57.412743 76.874702,54.500736 
	C75.573975,52.310211 72.552483,50.831940 69.985336,49.858727 
	C68.989998,49.481392 66.936417,51.163822 65.775337,52.320061 
	C65.318970,52.774521 65.770683,55.169701 66.178673,55.277180 
	C67.602646,55.652283 69.190285,55.458328 70.711357,55.387161 
	C71.329056,55.358265 71.935532,55.089279 73.876907,54.582207 
	C72.829269,57.083179 72.422295,59.875095 71.417313,60.110142 
	C68.485329,60.795876 64.952477,61.340599 62.343052,60.267662 
	C59.923485,59.272793 57.886868,56.381931 56.583687,53.859833 
	C54.564743,49.952480 55.946007,46.662197 60.269566,45.270229 
	C64.210632,44.001396 68.225258,42.799446 72.300201,42.148838 
	C77.421379,41.331192 85.091820,48.321114 86.585106,54.688747 
	C88.117256,61.222073 85.975830,65.109581 78.937500,67.521095 
	C75.358940,68.747192 71.531738,69.247620 67.405579,70.186745 
	C60.023212,69.654144 53.084965,69.175713 48.518803,62.531616 
	C44.445221,56.604271 43.330971,49.986763 45.702785,43.643692 
	C46.874432,40.510292 50.915165,37.850056 54.268917,36.287800 
	C58.239456,34.438232 62.869152,34.003693 67.603416,32.832993 
z"/>
<path fill="#FBF5F2" opacity="1.000000" stroke="none" 
	d="
M21.512985,34.395042 
	C27.000353,31.559448 36.347427,34.810631 39.230919,40.720398 
	C32.171974,41.559525 26.622234,39.043457 21.512985,34.395042 
z"/>
<path fill="#F9EEE9" opacity="1.000000" stroke="none" 
	d="
M37.601040,74.669754 
	C35.699951,75.025696 34.123760,75.221405 31.798630,75.510117 
	C34.558739,69.857315 38.394756,67.496132 44.652714,68.347122 
	C42.410458,70.401260 40.168198,72.455399 37.601040,74.669754 
z"/>
<path fill="#F9F0EB" opacity="1.000000" stroke="none" 
	d="
M67.501396,11.109729 
	C67.258865,15.865808 66.617538,20.491863 65.910660,25.527721 
	C60.772434,23.089447 63.524303,18.270302 63.224598,14.342662 
	C63.147041,13.326234 65.737617,12.106209 67.501396,11.109729 
z"/>
<path fill="#FBF3EF" opacity="1.000000" stroke="none" 
	d="
M44.131382,18.615583 
	C45.018951,17.933252 46.412476,17.065685 46.867237,17.416174 
	C49.904610,19.757095 52.741722,22.357853 55.099342,25.571692 
	C50.065712,25.489052 46.228352,23.688635 44.131382,18.615583 
z"/>
<path fill="#FCF7F5" opacity="1.000000" stroke="none" 
	d="
M38.891747,30.092762 
	C38.004333,28.723352 37.340218,27.647047 36.401989,26.126497 
	C41.774750,25.098055 44.916920,27.239004 46.756104,32.668690 
	C44.209084,31.907749 41.662067,31.146807 38.891747,30.092762 
z"/>
<path fill="#FAF0EC" opacity="1.000000" stroke="none" 
	d="
M24.752415,48.252426 
	C28.501543,48.300503 31.874697,48.524307 35.247852,48.748116 
	C35.309212,49.420460 35.370571,50.092808 35.431934,50.765156 
	C32.154907,51.215046 28.883688,51.777687 25.592222,51.947239 
	C25.248301,51.964958 24.784580,49.657043 24.752415,48.252426 
z"/>
<path fill="#F6E7E0" opacity="1.000000" stroke="none" 
	d="
M25.973320,62.652298 
	C29.959318,61.502800 33.625919,60.521431 37.292522,59.540058 
	C37.475288,60.174206 37.658058,60.808353 37.840824,61.442497 
	C33.194546,62.967678 28.548271,64.492859 23.901995,66.018044 
	C23.704624,65.608894 23.507252,65.199745 23.309881,64.790596 
	C24.091230,64.133873 24.872578,63.477146 25.973320,62.652298 
z"/>
<path fill="#F6E5DE" opacity="1.000000" stroke="none" 
	d="
M50.633049,78.804367 
	C52.026604,76.437393 53.247528,74.418625 54.468449,72.399857 
	C55.115467,72.784843 55.762489,73.169823 56.409508,73.554802 
	C54.685295,76.527298 52.961079,79.499802 51.236862,82.472298 
	C50.736698,82.229256 50.236534,81.986214 49.736374,81.743172 
	C49.977718,80.879639 50.219067,80.016113 50.633049,78.804367 
z"/>
<path fill="#FAF1ED" opacity="1.000000" stroke="none" 
	d="
M69.898468,78.446007 
	C70.032539,76.783577 70.226738,75.562706 70.558929,73.474304 
	C74.631424,78.349251 72.066132,82.327194 70.532791,86.559166 
	C70.188438,84.174225 70.073517,81.530891 69.898468,78.446007 
z"/>
<path fill="#FBF5F2" opacity="1.000000" stroke="none" 
	d="
M99.237503,27.784233 
	C97.278267,28.614128 95.548485,29.169493 93.832977,29.765905 
	C92.172623,30.343147 90.526955,30.962631 88.011185,31.877703 
	C90.354027,26.039780 95.585922,24.922752 99.682022,21.996702 
	C100.981117,22.164625 101.961510,22.478725 102.941910,22.792824 
	C101.785675,24.371101 100.629440,25.949379 99.237503,27.784233 
z"/>
<path fill="#F9EEE8" opacity="1.000000" stroke="none" 
	d="
M110.753838,57.312958 
	C114.503799,58.115162 117.837532,58.837654 122.231369,59.789894 
	C116.496674,63.322575 110.371696,62.118305 104.714546,56.984577 
	C106.988899,57.085155 108.663246,57.159203 110.753838,57.312958 
z"/>
<path fill="#F7E8E1" opacity="1.000000" stroke="none" 
	d="
M101.344528,66.169220 
	C100.903923,65.541588 100.767288,65.085121 100.531837,64.409630 
	C105.557106,64.443710 109.421288,66.718605 112.478477,71.873497 
	C107.385101,71.831017 104.280495,69.571297 101.344528,66.169220 
z"/>
<path fill="#F8EDE7" opacity="1.000000" stroke="none" 
	d="
M99.399063,40.001503 
	C99.623619,38.938007 100.246544,37.795231 101.065659,36.384430 
	C104.042847,35.605556 106.823845,35.094707 110.638954,34.393906 
	C107.639305,39.488255 103.503090,39.240368 99.399063,40.001503 
z"/>
<path fill="#F9F0EB" opacity="1.000000" stroke="none" 
	d="
M100.348221,80.092873 
	C98.095360,77.489220 95.975166,75.049133 94.397263,72.298019 
	C93.271820,70.335762 94.112251,69.199402 96.867767,70.296417 
	C99.823105,73.146538 102.083099,75.979301 100.348221,80.092873 
z"/>
<path fill="#FBF3F0" opacity="1.000000" stroke="none" 
	d="
M86.438049,18.251137 
	C83.828461,21.552225 81.408447,24.524715 78.664413,27.895214 
	C76.236191,22.152534 82.399727,11.380463 88.304474,10.890133 
	C87.702789,13.413525 87.165215,15.668034 86.438049,18.251137 
z"/>
</svg>