<?xml version="1.0" standalone="no"?>
<!DOCTYPE svg PUBLIC "-//W3C//DTD SVG 20010904//EN"
 "http://www.w3.org/TR/2001/REC-SVG-20010904/DTD/svg10.dtd">
<svg version="1.0" xmlns="http://www.w3.org/2000/svg"
 width="227.000000pt" height="181.000000pt" viewBox="0 0 227.000000 181.000000"
 preserveAspectRatio="xMidYMid meet">

<g transform="translate(0.000000,181.000000) scale(0.100000,-0.100000)"
fill="#000000" stroke="none">
<path d="M680 1390 c0 -18 27 -64 49 -84 12 -11 21 -17 22 -15 1 2 2 21 3 42
2 33 -2 40 -25 53 -33 17 -49 18 -49 4z"/>
<path d="M1552 1304 c-15 -11 -22 -25 -22 -49 l0 -35 34 16 c28 14 66 58 66
78 0 12 -56 5 -78 -10z"/>
<path d="M560 1254 c0 -3 12 -23 28 -44 29 -41 77 -61 120 -51 l24 6 -23 29
c-12 16 -41 37 -63 47 -40 18 -86 25 -86 13z"/>
<path d="M320 1127 c0 -35 149 -107 226 -110 83 -4 70 31 -30 83 -51 26 -83
35 -132 38 -53 4 -64 2 -64 -11z"/>
<path d="M1644 1100 c-18 -4 -49 -18 -70 -31 l-39 -24 45 -3 c59 -5 110 11
140 43 l23 25 -34 -1 c-19 -1 -48 -4 -65 -9z"/>
<path d="M727 1012 c-49 -53 -42 -247 11 -312 16 -20 17 -14 17 154 0 97 -3
176 -6 176 -3 0 -13 -8 -22 -18z"/>
<path d="M1672 913 c-6 -2 -10 -9 -6 -14 8 -13 75 -10 109 6 29 13 29 13 -30
13 -33 0 -66 -2 -73 -5z"/>
<path d="M364 885 c-13 -33 4 -45 59 -45 56 0 117 16 117 31 0 26 -166 40
-176 14z"/>
<path d="M1668 741 c33 -29 126 -61 175 -61 48 0 77 14 62 29 -11 11 -121 36
-205 45 l-55 7 23 -20z"/>
<path d="M500 695 c-73 -14 -134 -37 -144 -54 -20 -31 157 12 215 53 27 19 19
19 -71 1z"/>
<path d="M1590 632 c0 -10 58 -64 90 -84 38 -23 80 -31 80 -15 0 15 -41 55
-80 79 -29 17 -90 31 -90 20z"/>
<path d="M612 582 c-26 -8 -122 -88 -122 -103 0 -15 64 -10 90 8 36 23 80 65
91 86 8 14 6 17 -13 16 -13 -1 -33 -4 -46 -7z"/>
<path d="M1530 489 c0 -37 5 -50 30 -74 16 -16 32 -26 36 -23 10 10 -17 84
-42 114 l-23 29 -1 -46z"/>
</g>
</svg>
